<?xml version="1.0" encoding="UTF-8"?>
<svg version="1.1" viewBox="0 0 2048 471" width="500" height="115" xmlns="http://www.w3.org/2000/svg">
<path transform="translate(231,2)" d="m0 0h25l13 3 4 4-2 4 13 2 15 5 10 6 1 5-28-5-21-3h-40l-12 2-9 4-19 5-13 5-28 14-18 12h-2l5 7-5 6-8 7-7 7-11 14-9 13-9 16-7 18-2 7v6l3-3 5-8 7-8 9-15 13-17 10-11 5-5 9-8 12-8 4 2 8-1 45-15 26-5h37l10 3 8 4 20 6 14 7 8 7v2l-6-1-17-8-21-6-20-3h-31l-22 4-15 5-26 13-15 10-12 10-7 10-10 14-8 16-6 14-5 21-1 10 3 13v13l5 8 5 21 6 16 10 18 10 14 12 13 8 8 16 11 17 10 17 8 14 4 10 2h28l7-3 9-2 7 1 3 2 3-2h9l20-10 13-8 9-7 9-9 11-15 9-15 12-25 6-19 3-14 1-14 1-2 10 3 4-35 1-50 1-2 5 2 9 10 8 13 8 16 7 17 8 23 6 12 4 5 1 10-1 5h3l2-9 1-11v-44l2-2 4 1 6 7 8 16 5 13 4 19 1 8v12l-3 20-6 25-9 25-12 25-12 19-12 16-12 14-13 13-11 9-13 10-21 13-19 10-25 9-15 5h-97l-32-7-20-6-26-11-20-11-20-13-11-9-10-9-20-20-11-14-14-21-12-23-7-16-7-22-5-23-3-22v-34l1-3 2-19 6-25 6-19 14-30 11-19 11-16 11-12 6-7 13-9 20-12 22-12 21-10 27-10 8-2h19z" fill="#FEFEFE"/>
<path transform="translate(638,47)" d="m0 0h166l26 2 20 4 15 5 16 8 12 8 12 11 7 8 8 13 6 13 4 13 3 20v25l-2 15-4 15-7 16-9 14-9 10-7 7-14 10-16 8-5 2h-3l13 18 8 12 26 38 11 16 16 23 11 16 1 4h-90l-6-7-29-44-13-19-28-42-61-1v112l-57 1h-20l-2-1v-352zm78 70v102h82l15-2 13-4 10-6 7-6 7-11 4-15v-14l-3-12-6-12-7-7-10-6-11-4-9-2-13-1z" fill="#FEFEFE"/>
<path transform="translate(1402,47)" d="m0 0h142l19 1 21 3 21 5 21 8 21 11 16 11 15 13 7 7 11 14 10 15 11 23 6 19 4 20 1 10v34l-3 20-5 19-6 16-8 16-10 16-11 13-9 10-11 9-12 9-21 12-19 8-25 7-27 4-18 1h-140l-1-1zm79 70-1 1v212h72l14-2 17-5 16-8 10-7 10-9 8-9 8-13 6-15 4-16 2-23-2-21-5-19-9-19-9-12-12-12-14-9-12-6-17-5-11-2-13-1z" fill="#FEFEFE"/>
<path transform="translate(1124,45)" d="m0 0h72l7 14 13 31 24 56 69 162 36 84 3 8-4 1h-77l-3-5-10-23-20-50v-2l-149 1-12 29-18 44-3 5h-80l10-23 23-54 15-35 92-216 10-24zm35 95-5 10-11 28-18 43-12 29v3h92l-1-6-18-44-16-39-9-23z" fill="#FEFEFE"/>
<path transform="translate(1801,47)" d="m0 0h37l41 1v351l-1 1-76 1-2-1v-352z" fill="#FEFEFE"/>
<path transform="translate(1971,47)" d="m0 0h77v354h-77l-1-3v-350z" fill="#FEFEFE"/>
</svg>
