<?xml version="1.0" encoding="UTF-8"?>
<svg version="1.1" viewBox="0 0 2048 547" width="599" height="160" xmlns="http://www.w3.org/2000/svg">
<path transform="translate(0)" d="m0 0h2048v547h-2048z" fill="#FDFDFD"/>
<path transform="translate(1065,168)" d="m0 0h14l16 3 16 6 15 9v-16l1-2h61l4 1 1 5v259l-2 20-4 15-5 12-9 16-12 13-11 8-16 8-16 5-11 2-12 1h-13l-20-3-16-5-16-7-12-9-9-8-9-13-5-12-2-10v-19l4-17 8-16 8-10h2l2-4 14-11 7-5-2-2-12-6-11-9-10-9-8-10-9-15-6-16-4-18-1-8v-28l4-20 6-16 9-16 9-11 11-11 15-10 11-5 17-5z" fill="#D32930"/>
<path transform="translate(111,168)" d="m0 0h59l6 2 1 7 1 117 3 16 5 10 6 5 7 2 10-1 8-4h2l2-4 5-14 1-7 1-120 1-7 5-2h59l6 2 1 2 1 121v39l-1 109-2 14-6 20-9 17-8 10-10 10-14 9-16 7-21 5-14 1h-12l-17-2-18-5-13-6-12-7-12-11-8-10-6-13-3-12v-21l4-16 8-16 8-10 12-12 8-6h2v-3l-6-2-13-12-7-11-5-12-4-15-1-8-1-37v-27l1-90z" fill="#D32930"/>
<path transform="translate(1209,169)" d="m0 0h65l1 1 1 7v9l15-9 16-6 10-2h25l16 4 12 5 13 8 14 12 10 13 7 12 7 18 4 20 1 19-2 21-5 20-7 16-10 15-11 12-14 11-15 8-15 5-10 2h-22l-14-5-12-8-7-6-4-4v40l-1 40-3 3h-63l-3-1-2-9v-240l1-29z" fill="#242223"/>
<path transform="translate(400,165)" d="m0 0h28l19 4 15 6 11 6 11 8 10 9 8 9 9 14 8 17 5 18 2 16v15l-3 17-5 16-5 12-10 16-14 15-10 8-14 8-11 5-17 5-14 2h-19l-18-3-15-5-16-8-12-9-14-14-9-13-8-16-5-15-2-11-1-11v-18l3-19 6-18 7-14 9-13 11-12 13-10 19-10 21-6z" fill="#D32930"/>
<path transform="translate(1536,165)" d="m0 0h18l19 3 15 5 16 8 11 8 10 9 9 10 8 13 7 15 5 17 2 14v24l-4 20-7 19-9 15-12 14-9 8-14 9-12 6-18 6-11 2h-29l-18-4-14-5-13-7-12-9-8-7-11-14-8-14-5-12-4-14-2-12v-27l4-20 7-19 8-14 11-14 12-11 14-9 15-7 15-4z" fill="#232223"/>
<path transform="translate(873,165)" d="m0 0h23l16 4 12 6 11 10 7 11 5 12 3 12 2 18 1 72 4 10 6 5 14 4 1 2v28l-4 10-9 8-9 6-15 6-9 2h-13l-13-3-8-5-6-5-6-10-4-11-3-21-1-82-2-11-4-9v-2l-6-3h-12l-9 4-5 4-7 14-2 12-1 118-4 6-10 1h-32l-22-1-4-2v-215l4-2h63l5 2v15l7-4 10-7 14-6z" fill="#D32930"/>
<path transform="translate(535,168)" d="m0 0h62l5 2 1 5 1 124 3 14 4 8 5 4 3 1h16l10-5 4-6 4-14 1-123 1-7 5-3h56l7 2 2 7 1 132 2 8 4 6 6 3 13 2 2 5v29l-4 7-10 9-15 9-7 3-6 1h-11l-12-3-10-5-10-9-7-9-3-6-2-1-2 4-7 8-13 10-16 8-13 3h-15l-16-3-16-8-11-10-7-11-5-13-4-20-1-11v-104l1-40 1-2z" fill="#D32930"/>
<path transform="translate(1821,86)" d="m0 0h70l1 82 52 1 1 1v60l-1 1-31 1h-21l1 73 4 12 5 6 8 4 8 2h13l13-1 1 6v29l-3 6-9 8-15 8-17 5h-24l-14-3-12-5-10-7-10-10-8-16-3-17v-229z" fill="#242123"/>
<path transform="translate(1728,165)" d="m0 0h18l19 3 16 6 15 8 10 9 2 10v15l-1 12-2 3-6 1-26-12-12-3h-8l-8 4-3 4v8l6 10 12 11 14 11 16 15 9 12 8 15 3 11v22l-4 13-7 11-11 11-14 8-15 5-9 2h-27l-17-4-9-4-11-6-12-9-12-11-4-6-1-6v-29l1-6 5 1 23 11 16 5 5 1h14l7-3 3-4v-6l-4-6-12-12-11-9-13-11-16-16-6-10-4-10-2-16 2-16 5-12 8-11 10-8 12-6 14-4z" fill="#242223"/>
<path transform="translate(1305,228)" d="m0 0h14l10 4 8 6 8 11 5 14 2 14-2 15-5 13-6 9-5 5-8 6-9 3h-11l-9-3-10-9-5-7-4-12-1-25 2-16 6-12 9-10 8-5z" fill="#FDFDFD"/>
<path transform="translate(1083,228)" d="m0 0h11l10 4 8 7 6 10 3 8 1 9v24l-2 10-5 12-8 9-11 6h-15l-8-3-8-6-8-10-5-11-3-15 1-16 4-13 6-10 5-6 11-7z" fill="#FDFDFD"/>
<path transform="translate(1538,228)" d="m0 0h15l10 4 8 7 6 10 4 13 1 6v17l-3 15-8 16-9 8-11 4h-11l-10-4-6-5-7-11-4-11-2-9v-22l4-15 6-11 7-7z" fill="#FDFDFD"/>
<path transform="translate(409,228)" d="m0 0h11l11 4 8 7 6 9 4 13 1 5v21l-3 14-6 12-8 9-8 4-3 1h-15l-9-4-8-8-6-12-3-11-1-6v-18l3-14 6-12 8-9 8-4z" fill="#FDFDFD"/>
<path transform="translate(223,379)" d="m0 0h5v58l-3 15-6 10-6 5-13 4h-10l-10-3-8-6-6-7-4-9-1-5v-13l3-12 5-9 6-7 10-7 15-7z" fill="#FDFDFD"/>
<path transform="translate(1116,379)" d="m0 0h5v54l-3 17-6 12-8 6-10 3h-10l-9-3-9-6-6-7-4-9-1-4v-12l3-12 5-10 8-9 14-9 15-6z" fill="#FDFDFD"/>
<path transform="translate(636,64)" d="m0 0h22l4 9 8 26 2 1 3-10 9-25 1-1h20l-2 4 1 23 3 38 3 5h-25l2-4v-17l-2-30-4 10-10 28-4 12h-4l-4-13-12-35-1-2-2 35v12l3 4h-15l1-3h2l2-18 2-30v-15l-3-2z" fill="#0A0507"/>
<path transform="translate(988,79)" d="m0 0 5 1 1 2v6l-2 2-5-1-2-2-4-1 4 8 1 10-3 6-6 5-10 3h-10l1 3 21 5 8 4 3 6-1 9-4 5-10 5-5 1h-14l-12-3-4-4v-7l5-4 6-2-1-4h-2l-1-7 4-6 1-4-7-8-1-4v-7l3-6 6-5 8-3h8l10 3 2-4z" fill="#090506"/>
<path transform="translate(1007,64)" d="m0 0h34l13 3 7 6 3 7v8l-3 7-4 5-8 4-9 2-10 1v23l5 3v1h-28l4-4v-63l-4-1z" fill="#090506"/>
<path transform="translate(317,59)" d="m0 0h3v32l12-7 6-2h6l4 3 1 3 1 46h-19l1-41-11 2v39h-20l1-4v-59l-4-4v-2l13-3z" fill="#070506"/>
<path transform="translate(446,58)" d="m0 0 1 4v28l5-2 10-5 8-1 4 2 2 4 1 46h-19l1-41-11 2-1 2v32l1 5h-20l1-6v-50l-1-9-2-4 12-3z" fill="#060304"/>
<path transform="translate(1084,82)" d="m0 0h8l9 4 6 5 4 7 2 11-2 10-5 8-7 6-6 2h-12l-8-4-5-5-4-6-2-9 1-11 4-8 8-7z" fill="#0E0607"/>
<path transform="translate(180,82)" d="m0 0h8l10 4 7 7 4 11v9l-3 9-4 6-9 6-3 1h-12l-10-5-6-7-3-10v-10l4-10 7-7z" fill="#090506"/>
<path transform="translate(732,82)" d="m0 0h9l9 4 6 5 5 10v16l-4 8-8 7-7 3h-11l-10-5-7-8-2-5-1-9 2-10 5-8 8-6z" fill="#0A0506"/>
<path transform="translate(589,82)" d="m0 0h11l7 2 4 5 1 4v36h6l-2 4-4 2h-11l-6-6-6 5-3 1h-11l-6-4-2-4v-10l4-5 22-11 1-2v-9l-1-4h-4l-3 9-3 5-3 2h-6l-5-5 2-5 7-6z" fill="#0C0506"/>
<path transform="translate(928,82)" d="m0 0 7 1 3 4 1 4 1 43h-20l1-5v-36l-12 2 1 37 1 2h-20v-41l-3-2v-3l15-3 3-2h3v7l4-1 9-5z" fill="#0C0607"/>
<path transform="translate(550,82)" d="m0 0 7 1 3 3 1 2 1 37 1 9h-20l1-16v-25l-11 2v39h-20l1-4v-36l-3-3v-3l12-2 6-3h3v7l5-2 10-5z" fill="#090506"/>
<path transform="translate(844,82)" d="m0 0 7 1 4 5 1 46h-19l1-41-11 2v39h-21l2-1v-40l-1-4 7-2 10-4h2v7l15-7z" fill="#0D0506"/>
<path transform="translate(125,63)" d="m0 0h16l10 4 2 4-6 8-1 2-3-1-6-10-4-2h-7l-5 3-2 7 2 5 8 5 13 5 8 5 4 5 1 3v13l-4 6-8 7-9 3h-15l-12-4-5-5 9-12h2l4 10 5 5 3 1h8l6-4 1-3v-7l-1-4-5-2-20-9-5-5-3-7 1-10 5-8 6-5z" fill="#0A0506"/>
<path transform="translate(228,83)" d="m0 0h3l1 43 10-3 1-1v-30l-4-2 2-2 13-3 3-2h3l2 51h-17l-1-1v-5l-7 3-8 4h-9l-5-5-1-4-1-32-3-5 1-1 11-2z" fill="#0A0506"/>
<path transform="translate(396,62)" d="m0 0h17l11 5-2 5-7 10-3-3-5-9-4-3h-6l-6 4-4 8-1 4v21l4 11 5 6 4 2h11l6-3 6-7 3-3-3 9-6 8-7 6-4 2-11 1-9-2-8-5-5-7-3-9-1-6v-9l3-12 5-10 8-8z" fill="#0B0607"/>
<path transform="translate(1131,82)" d="m0 0 13 1 8 3 1 2-5 9-3-1-6-8-2-1h-7l-3 3v5l10 5 12 5 6 7v10l-4 7-8 5-4 1h-11l-11-3-5-3 5-9 3-2 7 10 6 3 7-1 3-5-1-5-8-4-12-5-5-5-2-7 3-9 6-5z" fill="#090506"/>
<path transform="translate(285,68)" d="m0 0h2v15l11 1v4l-11 1v38l11-1-5 6-6 3h-11l-5-3-2-5v-39l-4-1 1-2 7-3 7-7z" fill="#080506"/>
<path transform="translate(1177,67)" d="m0 0h1v17h12l-1 4h-11l1 40 11-3-2 4-5 4-5 2h-10l-6-4-1-2-1-40-3-3 8-4 8-9z" fill="#090506"/>
<path transform="translate(796,82)" d="m0 0 6 1 2 4v6l-3 4-4 1-8-4h-3l-1 2v33l1 4 2 1h-23l1-3v-37l-3-5 7-2 10-3 4-1v6z" fill="#090506"/>
<path transform="translate(338,82)" d="m0 0h6l4 3 1 3 1 46h-19l1-41-10 1 2-5 8-5z" fill="#0E0607"/>
<path transform="translate(465,82)" d="m0 0 7 1 3 3 1 2 1 46h-19l1-41-11 1 5-7z" fill="#0B0506"/>
<path transform="translate(988,79)" d="m0 0 5 1 1 2v6l-2 2-5-1-2-2-4-1 4 8 1 10-3 6-6 5-10 3-9-1 3-1-2-8v-16l2-5 2-3-2-2h8l10 3 2-4z" fill="#0F0809"/>
<path transform="translate(501,83)" d="m0 0h3l1 51h-21l2-1v-38l-4-6 7-2 10-3z" fill="#0E0607"/>
<path transform="translate(880,82)" d="m0 0 2 4v36l1 12h-20l1-11v-28l-4-6 1-1 14-3z" fill="#110507"/>
<path transform="translate(1088,83)" d="m0 0h7l6 3 6 5 4 7 2 11-2 10-5 8-7 6-3 1h-7l4-7 1-5v-26l-2-8-6-3z" fill="#0A0506"/>
<path transform="translate(182,85)" d="m0 0 6 1 3 6 1 9v15l-2 13-4 3h-5l-4-5-1-4v-28l2-7z" fill="#FDFDFD"/>
<path transform="translate(1085,85)" d="m0 0 6 1 3 4 1 6v26l-2 7-3 3-7-1-3-7-1-9v-10l1-13 3-5z" fill="#FDFDFD"/>
<path transform="translate(735,85)" d="m0 0 6 2 2 3 1 5v28l-3 7-3 2-6-1-3-7-1-9 1-22 2-5z" fill="#FDFDFD"/>
<path transform="translate(1029,69)" d="m0 0h11l5 5 1 6v10l-3 9-7 3h-6l-1-1z" fill="#FDFDFD"/>
<path transform="translate(954,136)" d="m0 0 9 1 12 3 3 4-1 5-6 4h-13l-6-3-2-6z" fill="#FDFDFD"/>
<path transform="translate(963,85)" d="m0 0 5 1 2 3 1 15-2 9-7 1-2-2-1-4v-16l2-5z" fill="#FDFDFD"/>
<path transform="translate(870,62)" d="m0 0h7l4 5 1 6-5 5-6 1-5-3-2-3v-6z" fill="#0C0708"/>
<path transform="translate(492,62)" d="m0 0h6l5 5 1 6-5 5-6 1-5-3-2-3v-6z" fill="#0B0608"/>
<path transform="translate(586,83)" d="m0 0 8 1-1 2h-4l-3 9-3 5-3 2h-6l-5-5 2-5 7-6z" fill="#0D0708"/>
<path transform="translate(951,134)" d="m0 0 5 1-4 6-1 4 2 5 5 2 11 1 1 3h-14l-12-3-4-4v-7l5-4 6-2z" fill="#170C0D"/>
<path transform="translate(796,82)" d="m0 0 6 1 2 4v6l-3 4-4 1-12-6-1-3z" fill="#100708"/>
<path transform="translate(592,106)" d="m0 0h3v18l-6 3-5-1-1-3v-8l6-7z" fill="#FDFDFD"/>
<path transform="translate(1119,118)" d="m0 0 4 4 4 6 10 5 2 2h-11l-11-3-5-3 5-9z" fill="#150A0C"/>
<path transform="translate(1131,82)" d="m0 0 13 1 8 3 1 2-5 9-3-1-6-8-9-2z" fill="#160A0B"/>
<path transform="translate(1938,170)" d="m0 0h6v59h-1l-1-50-4-5z" fill="#030203"/>
<path transform="translate(1884,87)" d="m0 0h6v38h-2v-32l-2-1v-4z" fill="#030203"/>
<path transform="translate(286,83)" d="m0 0 12 1v4h-11z" fill="#161516"/>
<path transform="translate(1179,84)" d="m0 0h11l-1 4h-11z" fill="#171213"/>
</svg>
