<?xml version="1.0" encoding="UTF-8"?>
<svg version="1.1" viewBox="0 0 2048 655" width="481" height="154" xmlns="http://www.w3.org/2000/svg">
<path transform="translate(1188,31)" d="m0 0h101l4 8 19 50 14 36 19 49 44 114 5 14 2-1 20-51 12-30 17-43 19-48 21-53 17-43 2-2h100v375l-1 1h-67l-1-285-22 54-20 50-12 29-15 37-22 54-20 49-4 10-2 2h-48l-12-29-22-56-16-40-22-56-12-30-15-38-14-35-1-4h-2l1 2v285l-3 1h-63l-1-1-1-15v-342z" fill="#010000"/>
<path transform="translate(533,23)" d="m0 0h22l26 3 21 5 22 8 20 10 12 8 12 9 14 12 9 9 9 11 12 17 14 27 9 27 4 19 2 23v15l-1 17-5 26-6 19-7 16-10 19-12 17-10 11-7 8-11 10-13 10-18 11-16 8-16 6-21 6-24 4h-40l-23-4-21-6-15-6-16-8-15-9-13-10-10-9-15-15-13-17-9-15-9-17-8-22-5-21-2-13-1-12v-23l3-24 5-21 7-19 8-17 11-18 9-12 10-11 7-8 10-9 15-11 18-11 21-10 26-8 25-4zm-1 62-18 3-21 7-16 8-14 10-13 11-8 9-11 15-9 17-6 17-4 17-1 8v24l3 18 5 16 7 16 7 12 10 13 16 16 14 10 16 9 19 7 19 4 9 1h18l20-3 17-5 18-8 11-7 13-10 9-8 9-11 9-12 8-16 6-16 4-17 1-8v-27l-4-21-7-19-10-19-10-13-12-13-14-11-13-8-17-8-21-6-14-2z" fill="#010000"/>
<path transform="translate(1781,31)" d="m0 0h56l4 9 20 53 41 108 22 58 20 53 19 50 15 39 1 6h-77l-8-20-18-52v-2l-5 1h-106l-34 1-12 35-11 30-3 6-1 1h-73l1-5 15-38 52-130 43-108 16-40 19-48 3-6zm22 105-19 53-21 57-10 27-1 3h103l-1-5-19-53-20-56-9-25z" fill="#010000"/>
<path transform="translate(73,31)" d="m0 0h254v34l-14 25-16 27-15 26-13 22-17 29-14 24-17 29-14 24-34 58-11 18 1 2 176 1v56l-1 1h-269l-1-1v-34l5-10 9-15 34-58 13-22 10-17 16-27 15-26 15-25 15-26 9-15 15-26 9-15 1-2h-161l-1-2v-53z"/>
<path transform="translate(782,31)" d="m0 0h65l2 1v318h158l1 1v54l-3 2h-222l-1-1z"/>
<path transform="translate(1118,134)" d="m0 0 3 1v271l-2 1h-69l-2-2v-239l19-9 36-16z" fill="#030202"/>
<path transform="translate(1907,485)" d="m0 0h20l10 3 11 7 2-8h23v99l-2 14-7 14-8 8-8 5-15 4-8 1h-13l-16-3-15-6-7-4 1-6 7-14 2-1 16 8 12 3h16l9-4 5-4 3-5 4-19-6 3-9 5-12 3h-12l-12-3-8-4-10-9-7-10-5-13-1-5v-15l3-12 6-12 8-9 10-7zm8 21-9 4-7 6-5 10-1 4v13l4 10 6 7 8 5 11 2 12-3 11-8 3-7v-29l-4-6-10-6-6-2z" fill="#E0A781"/>
<path transform="translate(1628,485)" d="m0 0h20l10 5 8 9 4-2 7-6 10-5 4-1h21l10 4 8 7 6 11 3 14v66l-5 1h-19l-2-4-1-65-4-8-7-4h-11l-8 4-7 6-1 2-1 68-8 1h-15l-2-2v-56l-2-12-5-8-5-3h-10l-10 5-6 6-1 3-1 66-8 1h-16l-1-1v-100h23l1 9 15-9z" fill="#DFA680"/>
<path transform="translate(1793,485)" d="m0 0h27l11 4 8 6 6 9 3 8 1 8v67l-2 1h-19l-2-2-1-4-4 2-7 4-8 2h-19l-12-4-10-9-5-10-1-4v-9l3-10 7-9 8-5 9-3 12-2h17l10 1-5-14-5-5-8-2h-9l-14 3-11 5h-3l-6-16 1-4 18-6zm6 57-8 3-6 7-1 2 1 9 5 6 7 3h9l12-5 5-4 2-5-1-13-4-3z" fill="#E0A781"/>
<path transform="translate(1470,487)" d="m0 0h28l14 42 7 19v2h2l1-6 19-53 2-4h27l-1 5-32 81-13 33-11 27-6-1-16-6-1-3 15-38-1-7-16-41-16-42-2-5z" fill="#E0A781"/>
<path transform="translate(1049,31)" d="m0 0h71l1 1v43l-1 16-28 13-29 13-14 6-1-1v-90z" fill="#E0A781"/>
<path transform="translate(1297,485)" d="m0 0h22l11 3 11 6-1 5-8 13-1 2-5-2-8-4-3-1h-13l-10 5-6 7-4 9-1 6v9l4 11 8 9 8 4 4 1h8l11-4 3-2 5 1 8 11 2 5-5 4-8 4-13 3h-19l-11-3-10-5-11-11-6-10-4-12-1-14 3-16 7-14 7-8 12-8 9-3z" fill="#E0A781"/>
<path transform="translate(1414,464)" d="m0 0h23v23h26l1 19-2 1h-25l1 54 2 5 4 2h8l4-2 4 1 6 15-1 4-15 4h-15l-10-4-7-7-5-9-2-9v-54h-12l-1-6v-12l1-2 12-1 2-20z" fill="#DFA680"/>
<path transform="translate(1359,487)" d="m0 0h24l1 1v99l-10 1h-14l-1-1z" fill="#E0A781"/>
<path transform="translate(1360,448)" d="m0 0 24 1v10l-1 11-5 1h-18l-1-1v-21z" fill="#E0A781"/>
</svg>
